# xmcd
#
# Track frame offsets:
#	150
#	20272
#	38502
#
# Disc length: 781 seconds
#
# Revision: 1
# Processed by: cddbd v1.5PL3 Copyright (c) Steve Scherf et al.
# Submitted via: CDex 1.50Beta5
#
DISCID=14030b03
DTITLE=矢野顕子 - 夢のヒヨコ
DYEAR=1900
DGENRE=Pop
TTITLE0=夢のヒヨコ
TTITLE1=いいこいいこ (Good Girl) live version
TTITLE2=夢のヒヨコ (オリジナル・カラオケ)
EXTD=
EXTT0=
EXTT1=
EXTT2=
PLAYORDER=
